<svg xmlns="http://www.w3.org/2000/svg" viewBox="0 0 1018.55 116.61"><defs><style>.cls-1,.cls-2{fill:#fff;}.cls-2{stroke:#fff;stroke-miterlimit:10;}</style></defs><g id="Layer_2" data-name="Layer 2"><g id="Layer_1-2" data-name="Layer 1"><path class="cls-1" d="M37.3,103.39,9.68,28.8,2,27.85V17.47H36.17V27.85L28.44,29l16.88,50.7,1.3,4.72H47l1.24-4.61L65.09,29l-9-1.18V17.47H88.64V27.85l-7.79.95L54.94,103.39Z" transform="translate(-2.01 -11.33)"/><path class="cls-1" d="M122,104.63a31,31,0,0,1-16-4A27.81,27.81,0,0,1,95.45,89.46,34,34,0,0,1,91.7,73.29V70.93a38.31,38.31,0,0,1,3.54-16.84,28,28,0,0,1,10-11.57,26.92,26.92,0,0,1,15.25-4.16q8.69,0,14.58,3.42a22.1,22.1,0,0,1,9,9.86,36,36,0,0,1,3.07,15.58V76.6H109.58l-.11.35a19.1,19.1,0,0,0,2.09,7.47,12.75,12.75,0,0,0,4.93,5.13,15.08,15.08,0,0,0,7.73,1.86A30.88,30.88,0,0,0,133,90.2a33.39,33.39,0,0,0,8-3.57l4.66,10.62a33.19,33.19,0,0,1-9.94,5.29A41.68,41.68,0,0,1,122,104.63ZM109.7,65.21H131V63.67A19.35,19.35,0,0,0,130,57a8.7,8.7,0,0,0-3.3-4.34,10.32,10.32,0,0,0-5.87-1.54A9.28,9.28,0,0,0,115,52.91a11.84,11.84,0,0,0-3.68,4.92,25.68,25.68,0,0,0-1.8,7.08Z" transform="translate(-2.01 -11.33)"/><path class="cls-1" d="M154.31,103.39V93.06l8.26-1.77V51.7l-9.14-1.78V39.54h25.2l.76,9.15a23.27,23.27,0,0,1,7.88-7.62A21,21,0,0,1,198,38.36q9.51,0,14.87,6.08t5.37,19.06V91.29l8.27,1.77v10.33H193.56V93.06l7.37-1.77V63.56q0-6.44-2.53-9.12c-1.7-1.79-4.21-2.69-7.56-2.69a12.85,12.85,0,0,0-6.46,1.57,13,13,0,0,0-4.57,4.45V91.29l7,1.77v10.33Z" transform="translate(-2.01 -11.33)"/><path class="cls-1" d="M255,104.63q-8.91,0-13.72-4.9t-4.81-15.52V51.64h-8.8V39.54h8.8V23.9h17.17V39.54h11.74v12.1H253.63V84.15q0,3.72,1.56,5.31a5.69,5.69,0,0,0,4.28,1.6,24.22,24.22,0,0,0,3.1-.21c1.08-.14,2-.28,2.8-.44l1.48,12.45a50.28,50.28,0,0,1-5.76,1.27A38.6,38.6,0,0,1,255,104.63Z" transform="translate(-2.01 -11.33)"/><path class="cls-1" d="M300.25,104.63q-10.1,0-15.85-6.4t-5.75-19.92V51.7l-7-1.78V39.54h24.26V78.43q0,6.84,2.39,9.82t7.23,3a14.72,14.72,0,0,0,6.78-1.5,12.78,12.78,0,0,0,4.84-4.28V51.7l-7.61-1.78V39.54h24.85V91.29L342,93.06v10.33H319.25l-1.18-8.08a20.78,20.78,0,0,1-7.56,6.9A21.53,21.53,0,0,1,300.25,104.63Z" transform="translate(-2.01 -11.33)"/><path class="cls-1" d="M349.58,103.39V93.06l8.26-1.77V51.7l-9.15-1.78V39.54h25.2l.65,7.91.12,1.41A20,20,0,0,1,380.5,41a13.33,13.33,0,0,1,8.32-2.65,24.68,24.68,0,0,1,3.37.26,25.4,25.4,0,0,1,3.24.68L393.6,55.18,385,54.71a10.14,10.14,0,0,0-5.93,1.23,13.67,13.67,0,0,0-4,4.08V91.29l8.26,1.77v10.33Z" transform="translate(-2.01 -11.33)"/><path class="cls-1" d="M429.83,104.63a30.89,30.89,0,0,1-16-4,27.81,27.81,0,0,1-10.59-11.13,34,34,0,0,1-3.75-16.17V70.93A38.31,38.31,0,0,1,403,54.09a28,28,0,0,1,10-11.57,27,27,0,0,1,15.26-4.16q8.67,0,14.57,3.42a22,22,0,0,1,9,9.86,35.86,35.86,0,0,1,3.07,15.58V76.6H417.38l-.12.35a19.28,19.28,0,0,0,2.1,7.47,12.75,12.75,0,0,0,4.93,5.13A15.08,15.08,0,0,0,432,91.41a31,31,0,0,0,8.82-1.21,33.32,33.32,0,0,0,8-3.57l4.67,10.62a33.13,33.13,0,0,1-9.95,5.29A41.6,41.6,0,0,1,429.83,104.63ZM417.5,65.21h21.3V63.67a19.36,19.36,0,0,0-1-6.69,8.7,8.7,0,0,0-3.3-4.34,10.36,10.36,0,0,0-5.88-1.54,9.25,9.25,0,0,0-5.78,1.81,12,12,0,0,0-3.69,4.92,26.41,26.41,0,0,0-1.8,7.08Z" transform="translate(-2.01 -11.33)"/><path class="cls-1" d="M531.8,104.63q-12.81,0-21.83-5.31a35.37,35.37,0,0,1-13.84-14.75,47.6,47.6,0,0,1-4.81-21.9v-3a51,51,0,0,1,4.78-22.66,36.67,36.67,0,0,1,13.54-15.31q8.76-5.52,20.75-5.52a58.24,58.24,0,0,1,17.4,2.54A40.38,40.38,0,0,1,562,26.38V45.44H549.21l-2.42-11.51a17,17,0,0,0-6.2-3.21,29.87,29.87,0,0,0-8.91-1.21,20.55,20.55,0,0,0-12.42,3.8,24,24,0,0,0-8,10.57,41.32,41.32,0,0,0-2.77,15.72v3.07a38.7,38.7,0,0,0,2.75,15.2,21.9,21.9,0,0,0,8,10,23,23,0,0,0,13,3.54,38.07,38.07,0,0,0,8.35-.85,27.63,27.63,0,0,0,6.29-2.1V73.88l-12.28-.94V60.84h29.57V95.6a47.76,47.76,0,0,1-13.78,6.55A63.74,63.74,0,0,1,531.8,104.63Z" transform="translate(-2.01 -11.33)"/><path class="cls-1" d="M574.46,103.39V93.06l8.27-1.77V51.7l-9.15-1.78V39.54h25.2l.65,7.91.12,1.41A20,20,0,0,1,605.39,41a13.31,13.31,0,0,1,8.32-2.65,24.55,24.55,0,0,1,3.36.26,25.58,25.58,0,0,1,3.25.68l-1.83,15.88-8.56-.47A10.13,10.13,0,0,0,604,55.94,13.67,13.67,0,0,0,600,60V91.29l8.26,1.77v10.33Z" transform="translate(-2.01 -11.33)"/><path class="cls-1" d="M645.51,104.63q-9.5,0-15.1-5.1t-5.61-13.9a17.56,17.56,0,0,1,3.28-10.57,21.56,21.56,0,0,1,9.67-7.14,42.18,42.18,0,0,1,15.79-2.59H662V60.61a10.49,10.49,0,0,0-2.69-7.47q-2.68-2.87-8-2.86a16.8,16.8,0,0,0-5,.68,14.84,14.84,0,0,0-4,1.92l-1.36,8.43H628.52l-.24-16.58a53.79,53.79,0,0,1,10.86-4.6,44.9,44.9,0,0,1,13-1.77q12.51,0,19.77,5.81t7.26,16.61V87.1c0,.87,0,1.72,0,2.57a19.25,19.25,0,0,0,.21,2.45l6.66.94v10.33H664.75c-.43-1.1-.86-2.28-1.3-3.54a22.7,22.7,0,0,1-.94-3.78,24.23,24.23,0,0,1-7.23,6.23A19.7,19.7,0,0,1,645.51,104.63Zm4.61-12.75A15.1,15.1,0,0,0,657,90.26,12.63,12.63,0,0,0,662,86V75.89h-8.5q-5.67,0-8.59,2.6A8.09,8.09,0,0,0,642,84.74,6.58,6.58,0,0,0,644.13,90,8.86,8.86,0,0,0,650.12,91.88Z" transform="translate(-2.01 -11.33)"/><path class="cls-1" d="M691.72,127.94V117.55l8.32-1.77V51.7l-9.21-1.78V39.54h25l.83,7.43a20.33,20.33,0,0,1,6.85-6.37,19.33,19.33,0,0,1,9.56-2.24,21,21,0,0,1,13.21,4.22,26.39,26.39,0,0,1,8.41,11.77A48.75,48.75,0,0,1,757.64,72v1.23a42.84,42.84,0,0,1-2.93,16.5,24.68,24.68,0,0,1-8.43,11A22.42,22.42,0,0,1,733,104.63a20.92,20.92,0,0,1-9.06-1.86,18.23,18.23,0,0,1-6.7-5.46v18.47l8.32,1.77v10.39Zm36.11-36.53q6.61,0,9.59-4.9t3-13.28V72a37.15,37.15,0,0,0-1.35-10.6,15.44,15.44,0,0,0-4.16-7.08,10.22,10.22,0,0,0-7.17-2.57,12,12,0,0,0-6.23,1.6,11.44,11.44,0,0,0-4.28,4.54v28A10.62,10.62,0,0,0,721.49,90,13.33,13.33,0,0,0,727.83,91.41Z" transform="translate(-2.01 -11.33)"/><path class="cls-1" d="M763.06,103.39V93.06l8.32-1.77V23.49l-9.2-1.77V11.33h26.37V47.68A21.47,21.47,0,0,1,796,40.81a20.68,20.68,0,0,1,10.12-2.45q9.61,0,15.26,6.4T827,64.56V91.29l8.26,1.77v10.33H802.36V93.06l7.44-1.77V64.44q0-6.9-2.6-9.79t-7.61-2.9a13.88,13.88,0,0,0-6.34,1.45,12.05,12.05,0,0,0-4.7,4.22V91.29L796,93.06v10.33Z" transform="translate(-2.01 -11.33)"/><path class="cls-1" d="M840.19,103.39V93.06l8.32-1.77V51.7l-9.21-1.78V39.54h26.44V91.29L874,93.06v10.33ZM847.92,26V11.33h17.82V26Z" transform="translate(-2.01 -11.33)"/><path class="cls-1" d="M909.64,104.63a29.72,29.72,0,0,1-15.9-4.13,27.27,27.27,0,0,1-10.3-11.42,37.18,37.18,0,0,1-3.6-16.67V70.64a36.59,36.59,0,0,1,3.66-16.7,28,28,0,0,1,10.33-11.42,29.07,29.07,0,0,1,15.7-4.16A37.33,37.33,0,0,1,924.37,41a36.36,36.36,0,0,1,10.12,6.23l-.12,18.29h-13l-2.3-11.39a10.87,10.87,0,0,0-3.6-2.3,11.74,11.74,0,0,0-4.43-.88,12.5,12.5,0,0,0-7.82,2.36,14,14,0,0,0-4.63,6.73,31.81,31.81,0,0,0-1.54,10.56v1.77a28.71,28.71,0,0,0,1.72,10.77,13.48,13.48,0,0,0,4.57,6.22,10.88,10.88,0,0,0,6.4,2A10.72,10.72,0,0,0,917.05,89a12.28,12.28,0,0,0,3.75-6.76h14.75l.18.36a31.45,31.45,0,0,1-4,11.74,19.58,19.58,0,0,1-8.38,7.61Q918,104.63,909.64,104.63Z" transform="translate(-2.01 -11.33)"/><path class="cls-1" d="M970.72,104.63a61.55,61.55,0,0,1-13.31-1.36,60.72,60.72,0,0,1-11.83-3.89l-.18-18.06h12l2.3,9.21a21,21,0,0,0,4.4,1.59,23,23,0,0,0,5.46.59c3.85,0,6.57-.63,8.14-1.89A5.79,5.79,0,0,0,980,86.1a5.94,5.94,0,0,0-2.5-4.69q-2.52-2-10-3.57-11.32-2.36-16.7-7.32a16.49,16.49,0,0,1-5.37-12.69,18.15,18.15,0,0,1,2.69-9.68,18.89,18.89,0,0,1,8.2-7q5.52-2.66,14.13-2.65a58.76,58.76,0,0,1,13.19,1.38,39.51,39.51,0,0,1,10.06,3.63L993.91,61H982l-1.83-8.38a11,11,0,0,0-3.75-1.77,18.54,18.54,0,0,0-4.86-.59c-3,0-5.36.61-7,1.83a5.67,5.67,0,0,0-2.42,4.72,5.83,5.83,0,0,0,.86,3.07,7.87,7.87,0,0,0,3.39,2.65,35.48,35.48,0,0,0,7.38,2.36q11.87,2.73,17.29,7.23t5.43,12.66a18,18,0,0,1-6.46,14.4Q983.59,104.63,970.72,104.63Z" transform="translate(-2.01 -11.33)"/><path class="cls-2" d="M1012.77,104.63a7,7,0,0,1-2.85-.59,7.26,7.26,0,0,1-2.32-1.64A7.88,7.88,0,0,1,1006,100a8.4,8.4,0,0,1,0-6,7.84,7.84,0,0,1,1.56-2.44,7.23,7.23,0,0,1,2.32-1.63,7.13,7.13,0,0,1,5.68,0,7.27,7.27,0,0,1,2.33,1.63,7.85,7.85,0,0,1,2.13,5.45,7.92,7.92,0,0,1-.57,3,7.73,7.73,0,0,1-1.57,2.45,7.37,7.37,0,0,1-2.32,1.64A6.93,6.93,0,0,1,1012.77,104.63Zm0-1.28a5.72,5.72,0,0,0,2.33-.49,5.92,5.92,0,0,0,1.92-1.37,6.53,6.53,0,0,0,1.3-2,6.76,6.76,0,0,0,.46-2.52,6.67,6.67,0,0,0-.46-2.51,6.48,6.48,0,0,0-1.3-2,6.28,6.28,0,0,0-1.92-1.36,5.76,5.76,0,0,0-2.34-.48,5.81,5.81,0,0,0-4.28,1.83,6.29,6.29,0,0,0-1.3,2,6.87,6.87,0,0,0-.46,2.51,6.76,6.76,0,0,0,.47,2.52,6.33,6.33,0,0,0,1.29,2,5.83,5.83,0,0,0,4.29,1.86Zm-.16-1.83a3.32,3.32,0,0,1-2.61-1.09,4.15,4.15,0,0,1-1-2.88V96.33a4.17,4.17,0,0,1,1-2.88,3.33,3.33,0,0,1,2.61-1.1,3.64,3.64,0,0,1,2.52.82,2.85,2.85,0,0,1,.87,2.34l0,.07h-1.52a1.83,1.83,0,0,0-.46-1.4,1.92,1.92,0,0,0-1.39-.44,1.71,1.71,0,0,0-1.47.71,3,3,0,0,0-.52,1.87v1.23a3.08,3.08,0,0,0,.52,1.88,1.7,1.7,0,0,0,1.47.7,1.92,1.92,0,0,0,1.38-.43,1.82,1.82,0,0,0,.46-1.4H1016l0,.06a2.86,2.86,0,0,1-.86,2.35A3.63,3.63,0,0,1,1012.62,101.52Z" transform="translate(-2.01 -11.33)"/></g></g></svg>