<svg xmlns="http://www.w3.org/2000/svg" version="1.1" xmlns:xlink="http://www.w3.org/1999/xlink" xmlns:svgjs="http://svgjs.dev/svgjs" style="overflow: hidden; height: 85vh;" viewBox="0 0 1920 1080" class="overflow-hidden rounded-md drop-shadow-lg transition duration-300"><rect width="1920" height="1080" fill="#5e2ba2"/><g clip-path="url(&quot;#SvgjsClipPath2214&quot;)"><g transform="matrix(-1.0585805814703064,-0.44934079776266456,0.44934079776266456,-1.0585805814703064,1665.9189514360978,1528.2289199421107)"><path d="M0,-1080C14.354726935818471,-1023.6234056766693,72.38647532020399,-891.3412999613416,86.12836161491083,-741.7404340600157C99.87024790961767,-592.1395681586897,88.78168788986504,-341.8293490162379,82.45131776824107,-182.39480459204444C76.1209476466171,-22.960260167850947,71.40007331480663,102.03926540666016,48.146140885167,214.86683248514532C24.892208455527363,327.6943995636305,-45.42699516030908,388.2445860926141,-57.07227680959676,494.57059787886647C-68.71755845888443,600.8966096651188,-49.400412515428954,700.0316729965587,-21.725549010559035,852.8229032026596C5.949314494310887,1005.6141334087606,115.8180202834832,1279.7307578561815,108.97690421962278,1411.317979115472C102.13578815576237,1542.9052003747627,-44.6094280237844,1517.5658939443156,-62.77224539372153,1642.3462307584036C-80.93506276365866,1767.1265675724917,-10.462040898953589,2073.7243717930673,0,2160L 1920 2160 L 1920 -1080 Z" fill="url(&quot;#SvgjsLinearGradient2203&quot;)"/><path d="M174.54545454545456,-1080C192.55769035900136,-986.7617098844079,266.2488198615288,-731.206196735058,282.6188694267354,-520.5702593064475C298.988918991942,-309.93432187783696,271.62233844820065,-59.070862510336525,272.7657519366944,183.8156245716635C273.9091654251882,426.70211165366356,297.6380384284489,732.6533612785071,289.4793503576981,936.7486631855526C281.32066228694725,1140.8439650925982,242.9692728142301,1204.5122132115287,223.8136235121895,1408.3874360139366C204.65797421014892,1612.2626588163446,182.75681603991038,2034.731239335656,174.54545454545456,2160L 1920 2160 L 1920 -1080 Z" fill="url(&quot;#SvgjsLinearGradient2204&quot;)"/><path d="M349.0909090909091,-1080C334.2597612556867,-1013.6978145413401,269.5123464541824,-844.8263739032575,260.10402207957475,-682.1868872480406C250.69569770496705,-519.5474005928238,262.2684736574833,-285.54598637440813,292.64096284326297,-104.16308006869892C323.01345202904264,77.21982623701027,449.5350425000767,280.543165860842,442.3389571942528,406.1105505862145C435.14287188842894,531.677935311587,247.14388570822115,498.94478316511277,249.46445100831968,649.2412282835362C251.78501630841822,799.5376734019596,434.9518198025104,1139.403215919982,456.26234899484405,1307.8892212967553C477.5728781871777,1476.3752266735287,395.18953281297763,1518.138797426969,377.3276261623218,1660.1572605441763C359.46571951166595,1802.1757236613837,353.7970286028112,2076.6928767573627,349.0909090909091,2160L 1920 2160 L 1920 -1080 Z" fill="url(&quot;#SvgjsLinearGradient2205&quot;)"/><path d="M523.6363636363636,-1080C527.7792569886259,-979.0155331654097,532.505173255696,-645.7868559032295,548.4937237499372,-474.093198992458C564.4822742441784,-302.39954208168655,622.9007555233476,-216.2544071114751,619.5676666018109,-49.838058535371374C616.2345776802741,116.57829004073236,529.8034906409314,320.9985023337896,528.4951902207168,524.4048924641644C527.1868898005023,727.8112825945392,616.7772895999507,995.4053139898696,611.7178640805233,1170.6002822468777C606.658438561096,1345.7952505038857,512.8188871781791,1410.674749047359,498.1386371041525,1575.5747020062126C483.4583870301259,1740.4746549650663,519.3867425476618,2062.595783667702,523.6363636363636,2160L 1920 2160 L 1920 -1080 Z" fill="url(&quot;#SvgjsLinearGradient2206&quot;)"/><path d="M698.1818181818182,-1080C678.9894740078031,-957.2850947041088,598.2862057421909,-567.2128546382821,583.0277531377275,-343.710568224653C567.7693005332641,-120.20828181102391,589.1921326588222,72.54205339773588,606.6311025550381,261.0137184817745C624.070072451254,449.4853835658131,682.6373656886831,575.7376205481454,687.661572515023,787.1194222795787C692.6857793413628,998.5012240110119,635.0229692352781,1300.4910992503042,636.7763435130773,1529.3045288703743C638.5297177908766,1758.1179584904444,687.9475724036947,2054.8840881450624,698.1818181818182,2160L 1920 2160 L 1920 -1080 Z" fill="url(&quot;#SvgjsLinearGradient2207&quot;)"/><path d="M872.7272727272727,-1080C853.3050153774889,-1028.562992980577,767.1330538084696,-885.2394118370491,756.1937286285694,-771.3779578834624C745.2544034486691,-657.5165039298756,806.8385351240264,-565.9584268137756,807.0913216478713,-396.8312762784798C807.3441081717161,-227.70412574318388,728.112608958284,71.19946207678842,757.7104477716387,243.38494532831302C787.3082865849933,415.57042857983765,959.6270250958116,499.1611315571063,984.6783545279993,636.281623230668C1009.729683960187,773.4021149042296,911.7536144307774,943.9912188900832,908.0184243647644,1066.1078953696829C904.2832342987515,1188.2245718492825,956.8484514663529,1234.7857327898953,962.2672141319218,1368.9816821082657C967.6859767974908,1503.177631426636,955.4543239256193,1739.447204964616,940.5310003581777,1871.283591279905C925.6076767907361,2003.119977595194,884.0278939990902,2111.8805985466506,872.7272727272727,2160L 1920 2160 L 1920 -1080 Z" fill="url(&quot;#SvgjsLinearGradient2208&quot;)"/><path d="M1047.2727272727273,-1080C1049.9224889343604,-1009.6163689726532,1055.5190297468612,-803.5557655285822,1063.1712972425266,-657.6982138359192C1070.823564738192,-511.84066214325617,1092.120897964713,-361.5083166626693,1093.1863322467202,-204.85468984402152C1094.2517665287273,-48.20106302537374,1074.0942002115814,138.47832745392998,1069.56390293457,282.2235470759674C1065.0336056575586,425.96876669800486,1062.3307722047402,489.3840654806505,1066.0045485846517,657.6166278882031C1069.6783249645632,825.8491902957556,1078.5446400610863,1128.3149080334392,1091.6065612140387,1291.6189215212828C1104.6684823669912,1454.9229350091264,1151.765047825918,1492.7105290688114,1144.3760755023661,1637.4407088152643C1136.9871031788143,1782.1708885617172,1063.4566186443337,2072.9067848025443,1047.2727272727273,2160L 1920 2160 L 1920 -1080 Z" fill="url(&quot;#SvgjsLinearGradient2209&quot;)"/><path d="M1221.8181818181818,-1080C1221.4332390570978,-1016.6898784700188,1234.4364411840393,-846.1282496032791,1219.508525251678,-700.1392708201128C1204.5806093193169,-554.1502920369464,1128.2287719754336,-326.1810746778286,1132.2506862240152,-204.06612730100218C1136.2726004725969,-81.9511799241758,1240.6726261403383,-74.43303436738724,1243.6400107431675,32.550413440845546C1246.6073953459968,139.5338612490783,1141.9773941052426,294.8241988935674,1150.0549938409906,437.83455954839457C1158.1325935767386,580.8449202032217,1285.1965811990895,726.8909525546221,1292.1056091576556,890.6125773698086C1299.0146371162218,1054.334202184995,1186.8710400411856,1279.3590606162445,1191.509161592388,1420.1643084395132C1196.1472831435904,1560.969556262782,1314.8828350939043,1612.138115716006,1319.9343384648698,1735.4440643094206C1324.9858418358353,1858.7500129028351,1238.1708745926298,2089.2406773849034,1221.8181818181818,2160L 1920 2160 L 1920 -1080 Z" fill="url(&quot;#SvgjsLinearGradient2210&quot;)"/><path d="M1396.3636363636365,-1080C1407.383873146559,-1025.0234983634007,1475.406967077086,-881.9272916599982,1462.4850570611707,-750.1409901804046C1449.5631470452554,-618.354688700811,1347.1881391946645,-418.95788899175403,1318.8321762681442,-289.2821911224387C1290.4762133416239,-159.60649325312335,1265.695632513993,-104.98640298245238,1292.3492795020484,27.9131970354874C1319.0029264901038,160.81279705342718,1460.2971443116585,339.0256795681429,1478.7540581964768,508.1154089852C1497.210972081295,677.2051384022571,1401.0798075446141,885.8586486268525,1403.090762810958,1042.4515735378304C1405.101718077302,1199.0444984488083,1472.2217303401044,1344.9292427565301,1490.8197897945397,1447.6729584510674C1509.417849248975,1550.4166741456047,1530.4218117760538,1540.1926941135657,1514.67911953757,1658.9138677050544C1498.936427299086,1777.635041296543,1416.082883559292,2076.485644617509,1396.3636363636365,2160L 1920 2160 L 1920 -1080 Z" fill="url(&quot;#SvgjsLinearGradient2211&quot;)"/><path d="M1570.909090909091,-1080C1554.3755628391766,-991.9538787310878,1490.506240062265,-703.4085981881044,1471.707922489605,-551.7232723865266C1452.9096049169448,-400.03794658494877,1454.1413531682788,-298.0245047050851,1458.1191854731305,-169.88804519053323C1462.0970177779823,-41.751585675981346,1475.240250490077,93.3210329023497,1495.5749163187156,217.09548470078474C1515.9095821473543,340.86993649921976,1558.9911526250767,465.94733607788794,1580.1271804449627,572.7586656000769C1601.2632082648488,679.5699951222659,1640.9321630270872,729.4735703384366,1622.3910832380316,857.9634618339188C1603.850003448976,986.453353329401,1492.627261213471,1178.5782356462503,1468.880701710629,1343.6980145729701C1445.134142207787,1508.81779349969,1462.9069946879022,1712.6318044897334,1479.9117262209793,1848.6821353942385C1496.9164577540564,1984.7324662987435,1555.7428634610724,2108.113689232373,1570.909090909091,2160L 1920 2160 L 1920 -1080 Z" fill="url(&quot;#SvgjsLinearGradient2212&quot;)"/><path d="M1745.4545454545455,-1080C1760.1869614787227,-1026.1310214002708,1842.9564731872026,-911.3252431448398,1833.8490415996087,-756.7861284016244C1824.7416100120147,-602.2470136584091,1687.2186373870948,-303.22815296104045,1690.8099559289817,-152.765311540708C1694.4012744708687,-2.3024701203755455,1848.8301319012644,33.431166240035324,1855.3969528509306,145.9909201203704C1861.9637738005968,258.55067400070544,1749.2317529533918,392.15110668860177,1730.2108816269788,522.5932117413024C1711.1900103005657,653.035316794003,1754.735852249116,787.3013997720697,1741.271724892452,928.643550436574C1727.807597535788,1069.9857011010781,1667.48169272577,1215.6391069822726,1649.4261174869946,1370.6461157283281C1631.3705422482192,1525.6531244743837,1616.9335354652083,1727.1266222009622,1632.9382734598,1858.6856029129076C1648.9430114543918,1990.244583624853,1726.7018334554214,2109.780933818818,1745.4545454545455,2160L 1920 2160 L 1920 -1080 Z" fill="url(&quot;#SvgjsLinearGradient2213&quot;)"/></g></g><defs><linearGradient x1="0.1" y1="0" x2="0" y2="1" id="SvgjsLinearGradient2203"><stop stop-color="#5e2ba2" offset="0"/><stop stop-color="#4a2ba2" offset="0"/></linearGradient><linearGradient x1="0.1" y1="0" x2="0" y2="1" id="SvgjsLinearGradient2204"><stop stop-color="#582898" offset="0"/><stop stop-color="#452898" offset="0.09090909090909091"/></linearGradient><linearGradient x1="0.1" y1="0" x2="0" y2="1" id="SvgjsLinearGradient2205"><stop stop-color="#52268d" offset="0"/><stop stop-color="#41268d" offset="0.18181818181818182"/></linearGradient><linearGradient x1="0.1" y1="0" x2="0" y2="1" id="SvgjsLinearGradient2206"><stop stop-color="#4c2383" offset="0"/><stop stop-color="#3c2383" offset="0.2727272727272727"/></linearGradient><linearGradient x1="0.1" y1="0" x2="0" y2="1" id="SvgjsLinearGradient2207"><stop stop-color="#462079" offset="0"/><stop stop-color="#372079" offset="0.36363636363636365"/></linearGradient><linearGradient x1="0.1" y1="0" x2="0" y2="1" id="SvgjsLinearGradient2208"><stop stop-color="#401d6e" offset="0"/><stop stop-color="#321d6e" offset="0.45454545454545453"/></linearGradient><linearGradient x1="0.1" y1="0" x2="0" y2="1" id="SvgjsLinearGradient2209"><stop stop-color="#3a1b64" offset="0"/><stop stop-color="#2e1b64" offset="0.5454545454545454"/></linearGradient><linearGradient x1="0.1" y1="0" x2="0" y2="1" id="SvgjsLinearGradient2210"><stop stop-color="#34185a" offset="0"/><stop stop-color="#29185a" offset="0.6363636363636364"/></linearGradient><linearGradient x1="0.1" y1="0" x2="0" y2="1" id="SvgjsLinearGradient2211"><stop stop-color="#2e154f" offset="0"/><stop stop-color="#24154f" offset="0.7272727272727273"/></linearGradient><linearGradient x1="0.1" y1="0" x2="0" y2="1" id="SvgjsLinearGradient2212"><stop stop-color="#281245" offset="0"/><stop stop-color="#1f1245" offset="0.8181818181818182"/></linearGradient><linearGradient x1="0.1" y1="0" x2="0" y2="1" id="SvgjsLinearGradient2213"><stop stop-color="#22103b" offset="0"/><stop stop-color="#1b103b" offset="0.9090909090909091"/></linearGradient><clipPath id="SvgjsClipPath2214"><rect width="1920" height="1080"/></clipPath></defs></svg>